<svg width="498" height="282" viewBox="0 0 498 282" fill="none" xmlns="http://www.w3.org/2000/svg">
<g opacity="0.5">
<path d="M1.40087 282C1.40087 282 -6.34705 199.554 27.6836 169.123C59.7247 146.257 86.3773 132.371 140.695 130.621C195.013 128.871 224.791 128.862 257.211 92.9984C289.63 57.1346 333.461 2.94327 382.478 1.12282C429.787 -0.636067 458.694 14.2441 485.848 119.25C513.003 224.255 484.968 278.5 484.087 279.37C483.48 279.995 1.40087 282 1.40087 282Z" fill="#FFF7F7"/>
<path d="M221.885 213.482C224.87 177.425 213.75 124.658 226.728 117.315C239.539 110.077 243.906 107.711 257.202 92.9984C289.613 57.1258 333.417 2.93448 382.478 1.12282C429.787 -0.636067 458.694 14.2441 485.848 119.25C499.425 171.753 498.624 199.49 497.295 216.068C496.573 225.188 495.851 237.06 495.41 237.491C494.803 238.115 219.411 243.427 221.885 213.482Z" fill="#FFDCDA"/>
<path d="M112.167 97.0878L108.275 280.241C108.275 281.551 111.797 281.12 112.678 281.12H117.961L117.15 97.3868L148.619 98.2663L134.954 21.1654C134.612 19.2304 133.599 17.4777 132.092 16.2151C130.584 14.9525 128.68 14.2609 126.713 14.2618H105C102.485 14.2549 100.048 15.1324 98.1161 16.7404C96.1841 18.3484 94.8805 20.5843 94.4338 23.0562L81.1296 96.5162L112.167 97.0878Z" fill="#FFDCDA"/>
<path d="M108.275 280.241L112.167 97.0879L117.151 97.3869L117.961 281.12H112.678C111.797 281.12 108.275 281.551 108.275 280.241Z" fill="#F8C244"/>
<path d="M57.9814 237.957C57.9814 237.957 57.7878 245.134 59.0028 245.934C59.5245 246.343 60.1235 246.642 60.7638 246.813L66.8128 279.414C66.8128 279.414 84.5459 282.633 93.4125 279.01L99.4615 246.805L101.478 245.996L102.288 237.949C102.288 237.949 80.5485 230.711 57.9814 237.957Z" fill="#FFDCDA"/>
<path d="M60.0153 246.602C60.0153 246.602 83.7887 248.423 86.5974 247.622C89.4062 246.822 88.6138 240.376 88.6138 240.376L100.298 239.171C100.298 239.171 100.298 246.013 99.4879 246.822C98.5951 247.893 97.9112 249.122 97.4715 250.445C97.4715 250.85 92.6376 279.467 92.6376 279.467C92.6376 279.467 84.9774 280.672 83.7711 280.672C82.5648 280.672 86.9936 256.971 86.9936 255.309C86.9936 253.647 86.9936 250.481 85.7873 250.481C84.5811 250.481 61.2744 251.175 61.1335 248.581C60.9439 247.834 60.5579 247.151 60.0153 246.602Z" fill="#EE9591"/>
<path d="M69.3749 239.461C69.3749 239.461 62.7449 234.809 59.2229 234.387C55.7009 233.965 51.6154 233.507 48.0935 232.962C44.5715 232.417 40.081 230.843 40.169 228.785C40.2571 226.727 40.6797 225.742 42.7488 224.519C44.4934 223.385 46.47 222.655 48.5337 222.382C50.0834 222.242 65.9851 226.366 72.6152 236.225L75.2567 239.461H69.3749Z" fill="#888888"/>
<path d="M46.4205 227.958C46.4205 227.958 52.5135 227.879 55.8506 228.961C58.4596 229.935 60.9885 231.111 63.4141 232.479L73.39 239.417" fill="#E8A825"/>
<path d="M46.4205 227.958C46.4205 227.958 52.5135 227.879 55.8506 228.961C58.4596 229.935 60.9885 231.111 63.4141 232.479L73.39 239.417" stroke="white" stroke-width="0.379514" stroke-miterlimit="10" stroke-linecap="round"/>
<path d="M76.3573 239.189C76.3573 239.189 68.6441 228.723 65.6416 225.777C62.6391 222.831 59.126 219.463 56.2292 216.385C53.3324 213.307 49.6783 208.892 51.2191 207.08C52.76 205.269 53.8607 204.037 56.6694 204.442C58.8655 204.676 60.9685 205.453 62.7888 206.702C64.3385 207.705 78.3471 221.046 80.3987 236.375L82.4151 239.479L76.3573 239.189Z" fill="#888888"/>
<path d="M58.2368 210.598C58.2368 210.598 64.2417 214.186 66.6015 217.633C68.8291 220.852 72.3598 226.612 72.3598 226.612L76.3661 237.597" stroke="white" stroke-width="0.379514" stroke-miterlimit="10" stroke-linecap="round"/>
<path d="M80.2138 239.707C80.2138 239.707 71.2064 220.175 69.5246 216.314C67.8429 212.453 60.9663 206.64 59.443 202.7C57.9198 198.76 56.9512 195.893 58.5625 193.73C60.1738 191.566 64.3121 189.772 66.9535 191.091C69.4453 192.305 72.6856 195.999 74.0768 197.872C75.1862 199.349 82.5559 225.882 81.9484 232.003L83.3571 239.839L80.2138 239.707Z" fill="#E8A825"/>
<path d="M64.3474 198.286C64.3474 198.286 69.5159 204.934 71.0831 208.839C72.8441 213.236 74.6051 221.617 74.3762 220.272L79.756 238.415" stroke="white" stroke-width="0.379514" stroke-miterlimit="10" stroke-linecap="round"/>
<path d="M75.2743 239.558C75.2743 239.558 67.3499 230.526 63.4845 228.776C59.6192 227.026 55.2255 225.047 51.4481 223.165C47.6708 221.283 43.1363 218.091 43.9024 216.174C44.6684 214.256 45.452 213.483 48.1815 213.122C50.5663 212.719 53.0069 212.785 55.3664 213.315C57.1274 213.773 73.6807 223.763 77.9334 235.627L79.8969 239.716L75.2743 239.558Z" fill="#E8A825"/>
<path d="M51.2104 217.81C51.2104 217.81 58.0694 220.061 61.4769 222.365C64.0717 224.262 66.5312 226.336 68.8378 228.574L76.4453 239.637" stroke="white" stroke-width="0.379514" stroke-miterlimit="10" stroke-linecap="round"/>
<path d="M96.0011 239.76C96.0011 239.76 103.177 235.363 106.99 234.915C110.802 234.466 115.213 234.088 119.035 233.551C122.856 233.015 127.708 231.529 127.611 229.559C127.514 227.589 127.065 226.648 124.82 225.478C122.892 224.383 120.763 223.688 118.559 223.438C116.878 223.306 99.6727 227.237 92.4967 236.629L89.5999 239.725L96.0011 239.76Z" fill="#888888"/>
<path d="M120.822 228.785C120.822 228.785 114.236 228.706 110.617 229.744C107.811 230.66 105.075 231.777 102.429 233.086L92.8577 239.506" fill="#E8A825"/>
<path d="M120.822 228.785C120.822 228.785 114.236 228.706 110.617 229.744C107.811 230.66 105.075 231.777 102.429 233.086L92.8577 239.506" stroke="white" stroke-width="0.379514" stroke-miterlimit="10" stroke-linecap="round"/>
<path d="M88.4376 239.505C88.4376 239.505 96.7759 229.515 100.034 226.7C103.292 223.886 107.078 220.667 110.221 217.73C113.364 214.793 117.309 210.58 115.636 208.839C113.963 207.098 112.783 205.928 109.737 206.297C107.395 206.508 105.132 207.245 103.115 208.452C101.434 209.402 86.2804 222.154 84.0616 236.788L81.8868 239.751L88.4376 239.505Z" fill="#888888"/>
<path d="M108.055 212.216C108.055 212.216 101.557 215.637 99.0035 218.9C96.591 221.978 92.7785 227.475 92.7785 227.475L88.4376 237.958" stroke="white" stroke-width="0.379514" stroke-miterlimit="10" stroke-linecap="round"/>
<path d="M84.2817 240.007C84.2817 240.007 94.0288 221.354 95.8426 217.66C97.6564 213.967 105.105 208.444 106.752 204.662C108.398 200.88 109.446 198.154 107.72 196.096C105.995 194.038 101.495 192.315 98.6426 193.546C95.9483 194.707 92.4792 198.233 90.9383 200.019C89.7408 201.434 81.7635 226.762 82.4151 232.62L80.8918 240.104L84.2817 240.007Z" fill="#E8A825"/>
<path d="M83.3397 239.769C83.3397 239.769 84.1233 221.565 85.9812 215.655C87.2403 211.741 88.4729 205.101 90.1194 201.364C91.766 197.626 89.2389 192.71 87.5484 190.643C85.8578 188.577 81.385 188.972 78.497 190.195C75.8027 191.356 74.2529 195.111 73.9095 197.116C73.6014 198.945 80.073 220.905 79.3862 228.934L79.9409 239.875L83.3397 239.769Z" fill="#888888"/>
<path d="M101.443 200.476C101.443 200.476 95.8514 206.825 94.152 210.545C92.2326 214.758 90.3219 222.752 90.6301 221.433L84.2994 239.198" stroke="white" stroke-width="0.379514" stroke-miterlimit="10" stroke-linecap="round"/>
<path d="M89.6176 239.866C89.6176 239.866 98.2376 231.238 102.376 229.567C106.514 227.896 111.313 226.05 115.398 224.211C119.484 222.373 124.388 219.366 123.561 217.537C122.733 215.707 121.879 214.969 118.929 214.626C116.346 214.241 113.716 214.303 111.154 214.81C109.217 215.25 91.3433 224.783 86.7384 236.119L84.6163 240.024L89.6176 239.866Z" fill="#E8A825"/>
<path d="M115.663 219.084C115.663 219.084 108.24 221.23 104.56 223.429C101.772 225.223 99.1101 227.203 96.591 229.356L88.1911 238.661" stroke="white" stroke-width="0.379514" stroke-miterlimit="10" stroke-linecap="round"/>
<path d="M81.561 194.082C81.561 194.082 83.0578 209.675 82.1861 213.87C81.8251 215.628 82.0013 226.595 82.0013 226.595L81.6402 238.74" stroke="white" stroke-width="0.379514" stroke-miterlimit="10" stroke-linecap="round"/>
<path d="M81.8956 92.4092L147.237 93.614L148.575 98.2487L81.1208 96.4986L81.8956 92.4092Z" fill="#888888"/>
<path d="M403.161 103.746L402.624 231.977L484.158 232.197C484.158 232.197 484.748 164.665 481.516 99.9905L403.328 98.8208L403.161 103.746Z" fill="#F8C244"/>
<path d="M326.444 120.323L324.278 232.276H393.969L393.476 120.323H326.444Z" fill="#F8C244"/>
<path d="M225.24 186.018L325.405 186.536L324.278 232.276L225.618 232.241L225.24 186.018Z" fill="#F8C244"/>
<path d="M216.99 121.484L217.236 232.514C217.236 232.514 217.844 239.497 224.527 239.796C231.21 240.095 494.618 240.209 494.618 240.209C494.618 240.209 496.969 232.848 496.062 232.54C495.155 232.233 225.619 232.241 225.619 232.241C225.619 232.241 225.698 228.31 225.698 225.795C225.698 222.998 225.548 117.984 225.548 117.984C222.819 119.433 219.952 120.606 216.99 121.484Z" fill="white"/>
<path d="M222.801 132.512L489.317 134.104L490.726 139.873L222.801 141.157V132.512Z" fill="white"/>
<path d="M298.004 46.0538V232.47L305.039 233.015V41.1904L298.004 46.0538Z" fill="white"/>
<path d="M305.039 41.1903L457.144 42.1137L452.768 34.2427L313.694 34.1724L305.039 41.1903Z" fill="white"/>
<path d="M330.679 77.9076C339.218 77.9076 346.14 70.9935 346.14 62.4645C346.14 53.9356 339.218 47.0215 330.679 47.0215C322.14 47.0215 315.217 53.9356 315.217 62.4645C315.217 70.9935 322.14 77.9076 330.679 77.9076Z" fill="#888888"/>
<path d="M345.727 77.5559C351.324 77.5559 355.861 73.0239 355.861 67.4334C355.861 61.843 351.324 57.311 345.727 57.311C340.129 57.311 335.592 61.843 335.592 67.4334C335.592 73.0239 340.129 77.5559 345.727 77.5559Z" fill="#888888"/>
<path d="M428.44 105.129C437.14 105.129 444.192 98.0846 444.192 89.3954C444.192 80.7061 437.14 73.6621 428.44 73.6621C419.74 73.6621 412.688 80.7061 412.688 89.3954C412.688 98.0846 419.74 105.129 428.44 105.129Z" fill="#888888"/>
<path d="M412.559 101.497C416.603 101.497 419.882 98.4388 419.882 94.6668C419.882 90.8947 416.603 87.8369 412.559 87.8369C408.514 87.8369 405.235 90.8947 405.235 94.6668C405.235 98.4388 408.514 101.497 412.559 101.497Z" fill="#888888"/>
<path d="M425.288 8.54541L425.129 232.47L431.628 231.933L432.64 12.9162L425.288 8.54541Z" fill="white"/>
</g>
</svg>
