<svg width="112" height="112" viewBox="0 0 112 112" fill="none" xmlns="http://www.w3.org/2000/svg">
<g filter="url(#filter0_d_350_45)">
<path d="M10 50C10 27.9086 27.9086 10 50 10C72.0914 10 90 27.9086 90 50C90 72.0914 72.0914 90 50 90C27.9086 90 10 72.0914 10 50Z" fill="#55ACEE"/>
<path d="M48.8021 42.5125L48.886 43.8966L47.487 43.7271C42.3948 43.0774 37.9461 40.8742 34.169 37.1739L32.3223 35.3378L31.8467 36.6937C30.8394 39.7161 31.483 42.908 33.5814 45.0547C34.7006 46.2411 34.4487 46.4106 32.5182 45.7044C31.8467 45.4784 31.2591 45.3089 31.2032 45.3937C31.0073 45.5914 31.6788 48.1618 32.2104 49.1787C32.9379 50.5911 34.4208 51.9752 36.0436 52.7943L37.4145 53.444L35.7917 53.4722C34.2249 53.4722 34.169 53.5005 34.3368 54.0937C34.8964 55.9297 37.1068 57.8787 39.5689 58.7261L41.3036 59.3193L39.7928 60.2232C37.5544 61.5226 34.9244 62.257 32.2944 62.3135C31.0353 62.3417 30.0001 62.4547 30.0001 62.5394C30.0001 62.8219 33.4135 64.4037 35.4 65.0252C41.3596 66.8612 48.4383 66.0703 53.7544 62.9349C57.5316 60.7034 61.3088 56.2687 63.0714 51.9752C64.0227 49.6872 64.974 45.5067 64.974 43.5011C64.974 42.2018 65.058 42.0323 66.6248 40.4787C67.5481 39.5748 68.4155 38.5862 68.5833 38.3037C68.8631 37.767 68.8352 37.767 67.4082 38.2472C65.03 39.0946 64.6942 38.9817 65.8694 37.7106C66.7367 36.8067 67.7719 35.1683 67.7719 34.6882C67.7719 34.6034 67.3523 34.7446 66.8766 34.9989C66.373 35.2813 65.2538 35.705 64.4144 35.9593L62.9036 36.4395L61.5326 35.5073C60.7772 34.9989 59.7139 34.4339 59.1544 34.2645C57.7274 33.869 55.545 33.9255 54.258 34.3774C50.7606 35.6485 48.5503 38.9252 48.8021 42.5125Z" fill="white"/>
</g>
<defs>
<filter id="filter0_d_350_45" x="0" y="0" width="112" height="112" filterUnits="userSpaceOnUse" color-interpolation-filters="sRGB">
<feFlood flood-opacity="0" result="BackgroundImageFix"/>
<feColorMatrix in="SourceAlpha" type="matrix" values="0 0 0 0 0 0 0 0 0 0 0 0 0 0 0 0 0 0 127 0" result="hardAlpha"/>
<feOffset dx="6" dy="6"/>
<feGaussianBlur stdDeviation="8"/>
<feColorMatrix type="matrix" values="0 0 0 0 0 0 0 0 0 0 0 0 0 0 0 0 0 0 0.11 0"/>
<feBlend mode="normal" in2="BackgroundImageFix" result="effect1_dropShadow_350_45"/>
<feBlend mode="normal" in="SourceGraphic" in2="effect1_dropShadow_350_45" result="shape"/>
</filter>
</defs>
</svg>
