<svg width="83" height="24" viewBox="0 0 83 24" fill="none" xmlns="http://www.w3.org/2000/svg">
<g opacity="0.3">
<circle cx="81" cy="22" r="2" transform="rotate(-180 81 22)" fill="#F8C244"/>
<circle cx="81" cy="12" r="2" transform="rotate(-180 81 12)" fill="#F8C244"/>
<circle cx="81" cy="2" r="2" transform="rotate(-180 81 2)" fill="#F8C244"/>
<circle cx="71" cy="22" r="2" transform="rotate(-180 71 22)" fill="#F8C244"/>
<circle cx="71" cy="12" r="2" transform="rotate(-180 71 12)" fill="#F8C244"/>
<circle cx="71" cy="2" r="2" transform="rotate(-180 71 2)" fill="#F8C244"/>
<circle cx="62" cy="22" r="2" transform="rotate(-180 62 22)" fill="#F8C244"/>
<circle cx="62" cy="12" r="2" transform="rotate(-180 62 12)" fill="#F8C244"/>
<circle cx="62" cy="2" r="2" transform="rotate(-180 62 2)" fill="#F8C244"/>
<circle cx="52" cy="22" r="2" transform="rotate(-180 52 22)" fill="#F8C244"/>
<circle cx="52" cy="12" r="2" transform="rotate(-180 52 12)" fill="#F8C244"/>
<circle cx="52" cy="2" r="2" transform="rotate(-180 52 2)" fill="#F8C244"/>
<circle cx="42" cy="22" r="2" transform="rotate(-180 42 22)" fill="#F8C244"/>
<circle cx="42" cy="12" r="2" transform="rotate(-180 42 12)" fill="#F8C244"/>
<circle cx="42" cy="2" r="2" transform="rotate(-180 42 2)" fill="#F8C244"/>
<circle cx="32" cy="22" r="2" transform="rotate(-180 32 22)" fill="#F8C244"/>
<circle cx="32" cy="12" r="2" transform="rotate(-180 32 12)" fill="#F8C244"/>
<circle cx="32" cy="2" r="2" transform="rotate(-180 32 2)" fill="#F8C244"/>
<circle cx="22" cy="22" r="2" transform="rotate(-180 22 22)" fill="#F8C244"/>
<circle cx="22" cy="12" r="2" transform="rotate(-180 22 12)" fill="#F8C244"/>
<circle cx="22" cy="2" r="2" transform="rotate(-180 22 2)" fill="#F8C244"/>
<circle cx="12" cy="22" r="2" transform="rotate(-180 12 22)" fill="#F8C244"/>
<circle cx="12" cy="12" r="2" transform="rotate(-180 12 12)" fill="#F8C244"/>
<circle cx="12" cy="2" r="2" transform="rotate(-180 12 2)" fill="#F8C244"/>
<circle cx="2" cy="22" r="2" transform="rotate(-180 2 22)" fill="#F8C244"/>
<circle cx="2" cy="12" r="2" transform="rotate(-180 2 12)" fill="#F8C244"/>
<circle cx="2" cy="2" r="2" transform="rotate(-180 2 2)" fill="#F8C244"/>
</g>
</svg>
