<svg width="80" height="80" viewBox="0 0 80 80" fill="none" xmlns="http://www.w3.org/2000/svg">
<g opacity="0.6">
<circle cx="2" cy="40" r="2" fill="#F7F7F7"/>
<circle cx="2" cy="49" r="2" fill="#F7F7F7"/>
<circle cx="2" cy="59" r="2" fill="#F7F7F7"/>
<circle cx="2" cy="68" r="2" fill="#F7F7F7"/>
<circle cx="2" cy="78" r="2" fill="#F7F7F7"/>
<circle cx="12" cy="40" r="2" fill="#F7F7F7"/>
<circle cx="12" cy="49" r="2" fill="#F7F7F7"/>
<circle cx="12" cy="59" r="2" fill="#F7F7F7"/>
<circle cx="12" cy="68" r="2" fill="#F7F7F7"/>
<circle cx="12" cy="78" r="2" fill="#F7F7F7"/>
<circle cx="21" cy="40" r="2" fill="#F7F7F7"/>
<circle cx="21" cy="49" r="2" fill="#F7F7F7"/>
<circle cx="21" cy="59" r="2" fill="#F7F7F7"/>
<circle cx="21" cy="68" r="2" fill="#F7F7F7"/>
<circle cx="21" cy="78" r="2" fill="#F7F7F7"/>
<circle cx="31" cy="40" r="2" fill="#F7F7F7"/>
<circle cx="31" cy="49" r="2" fill="#F7F7F7"/>
<circle cx="31" cy="59" r="2" fill="#F7F7F7"/>
<circle cx="31" cy="68" r="2" fill="#F7F7F7"/>
<circle cx="31" cy="78" r="2" fill="#F7F7F7"/>
<circle cx="40" cy="2" r="2" fill="#F7F7F7"/>
<circle cx="40" cy="11" r="2" fill="#F7F7F7"/>
<circle cx="40" cy="21" r="2" fill="#F7F7F7"/>
<circle cx="40" cy="30" r="2" fill="#F7F7F7"/>
<circle cx="40" cy="40" r="2" fill="#F7F7F7"/>
<circle cx="40" cy="49" r="2" fill="#F7F7F7"/>
<circle cx="40" cy="59" r="2" fill="#F7F7F7"/>
<circle cx="40" cy="68" r="2" fill="#F7F7F7"/>
<circle cx="40" cy="78" r="2" fill="#F7F7F7"/>
<circle cx="50" cy="2" r="2" fill="#F7F7F7"/>
<circle cx="50" cy="11" r="2" fill="#F7F7F7"/>
<circle cx="50" cy="21" r="2" fill="#F7F7F7"/>
<circle cx="50" cy="30" r="2" fill="#F7F7F7"/>
<circle cx="50" cy="40" r="2" fill="#F7F7F7"/>
<circle cx="50" cy="49" r="2" fill="#F7F7F7"/>
<circle cx="50" cy="59" r="2" fill="#F7F7F7"/>
<circle cx="50" cy="68" r="2" fill="#F7F7F7"/>
<circle cx="50" cy="78" r="2" fill="#F7F7F7"/>
<circle cx="59" cy="2" r="2" fill="#F7F7F7"/>
<circle cx="59" cy="11" r="2" fill="#F7F7F7"/>
<circle cx="59" cy="21" r="2" fill="#F7F7F7"/>
<circle cx="59" cy="30" r="2" fill="#F7F7F7"/>
<circle cx="59" cy="40" r="2" fill="#F7F7F7"/>
<circle cx="59" cy="49" r="2" fill="#F7F7F7"/>
<circle cx="59" cy="59" r="2" fill="#F7F7F7"/>
<circle cx="59" cy="68" r="2" fill="#F7F7F7"/>
<circle cx="59" cy="78" r="2" fill="#F7F7F7"/>
<circle cx="69" cy="2" r="2" fill="#F7F7F7"/>
<circle cx="69" cy="11" r="2" fill="#F7F7F7"/>
<circle cx="69" cy="21" r="2" fill="#F7F7F7"/>
<circle cx="69" cy="30" r="2" fill="#F7F7F7"/>
<circle cx="69" cy="40" r="2" fill="#F7F7F7"/>
<circle cx="69" cy="49" r="2" fill="#F7F7F7"/>
<circle cx="69" cy="59" r="2" fill="#F7F7F7"/>
<circle cx="69" cy="68" r="2" fill="#F7F7F7"/>
<circle cx="69" cy="78" r="2" fill="#F7F7F7"/>
<circle cx="78" cy="2" r="2" fill="#F7F7F7"/>
<circle cx="78" cy="11" r="2" fill="#F7F7F7"/>
<circle cx="78" cy="21" r="2" fill="#F7F7F7"/>
<circle cx="78" cy="30" r="2" fill="#F7F7F7"/>
<circle cx="78" cy="40" r="2" fill="#F7F7F7"/>
<circle cx="78" cy="49" r="2" fill="#F7F7F7"/>
<circle cx="78" cy="59" r="2" fill="#F7F7F7"/>
<circle cx="78" cy="68" r="2" fill="#F7F7F7"/>
<circle cx="78" cy="78" r="2" fill="#F7F7F7"/>
</g>
</svg>
