<svg width="45" height="142" viewBox="0 0 45 142" fill="none" xmlns="http://www.w3.org/2000/svg">
<path d="M22.0697 141.179C26.7633 141.179 30.5683 137.374 30.5683 132.68C30.5683 127.986 26.7633 124.181 22.0697 124.181C17.376 124.181 13.571 127.986 13.571 132.68C13.571 137.374 17.376 141.179 22.0697 141.179Z" fill="#555555"/>
<path d="M22.0696 74.0285H22.0697C27.9229 74.0285 33.5364 76.3537 37.6753 80.4925C41.8141 84.6314 44.1393 90.2449 44.1393 96.0981V130.513H0V96.0981C-4.38444e-06 90.2449 2.32518 84.6314 6.46404 80.4925C10.6029 76.3537 16.2164 74.0285 22.0696 74.0285V74.0285Z" fill="#F8C244"/>
<path d="M22.0697 1V108.387" stroke="#555555" stroke-width="1.5" stroke-linecap="round" stroke-linejoin="round"/>
<path d="M22.0697 74.0285C27.9229 74.0285 33.5364 76.3537 37.6753 80.4925C41.8142 84.6314 44.1393 90.2449 44.1393 96.0981V130.513" stroke="#555555" stroke-width="1.5" stroke-linecap="round" stroke-linejoin="round"/>
</svg>
