<svg width="42" height="42" viewBox="0 0 42 42" fill="none" xmlns="http://www.w3.org/2000/svg">
<path fill-rule="evenodd" clip-rule="evenodd" d="M21 0C9.40251 0 0 9.40251 0 21C0 32.5975 9.40251 42 21 42C32.5975 42 42 32.5975 42 21C42 9.40251 32.5975 0 21 0ZM3 21C3 19.3666 3.2176 17.784 3.62538 16.2796C3.96048 17.0016 4.36911 17.6757 4.7796 18.3528C5.2123 19.0665 5.64708 19.7837 6 20.5641C6.46219 21.592 7.33418 21.9291 8.20849 22.2671C8.99591 22.5715 9.78521 22.8766 10.2788 23.6878C10.7707 24.4961 10.7212 25.4188 10.6716 26.3449C10.6279 27.1589 10.5842 27.9756 10.9078 28.7194C11.2185 29.4329 11.7901 29.8017 12.3744 30.1787C12.7352 30.4114 13.1008 30.6473 13.4128 30.9694C14.1263 31.6973 14.2174 32.6543 14.3082 33.6092L14.3082 33.6093L14.3082 33.6093L14.3082 33.6094C14.3237 33.7724 14.3392 33.9352 14.3578 34.0969C14.5016 35.4014 14.735 36.6944 15.0563 37.9669L15.0643 37.9982C8.03978 35.5453 3 28.8608 3 21ZM5.6413 13.4375C5.50119 13.049 5.36433 12.6695 5.19812 12.3735C6.4191 10.1418 8.09908 8.19706 10.1111 6.66621C10.0752 7.10343 10.1135 7.54425 10.2249 7.9699C10.3594 8.48357 10.5975 8.96429 10.9247 9.3825C11.116 9.62868 11.3463 9.81734 11.5678 9.99874C11.9897 10.3444 12.3795 10.6637 12.4059 11.3044C12.4453 12.2419 12.2991 12.7219 11.6859 13.3809C11.56 13.5145 11.4515 13.6746 11.3435 13.8342L11.3435 13.8343C11.224 14.0108 11.1049 14.1866 10.9631 14.325L10.9178 14.3691L10.9178 14.3691C10.7966 14.4873 10.7457 14.5369 10.6847 14.5626C10.6405 14.5813 10.5911 14.5873 10.5057 14.5978C10.4414 14.6057 10.3567 14.6161 10.2384 14.6363C9.42769 14.7732 8.71753 14.9722 7.95911 15.1848C7.80898 15.2268 7.65695 15.2694 7.50188 15.3122C6.42479 15.6099 6.02109 14.4905 5.6413 13.4375ZM14.3072 5.59594C14.4621 5.27536 14.3076 4.8227 14.038 4.39596C14.3761 4.25405 14.7193 4.12216 15.0675 4.00066C15.2862 4.15319 15.529 4.2618 15.8184 4.28063C16.0299 4.29486 16.2374 4.26569 16.4405 4.23714C16.8396 4.18103 17.2218 4.1273 17.5847 4.41001C17.7441 4.53301 17.8918 4.66459 18.0376 4.79443C18.4473 5.1594 18.8416 5.51057 19.4363 5.61844C20.2163 5.76001 21.0422 5.30438 21.2353 4.50657C21.3501 4.04123 21.2432 3.55097 21.1375 3.06564L21.1233 3.00041C24.7801 3.02495 28.1781 4.1401 31.0082 6.03685C30.8145 5.94897 30.5769 5.95002 30.2822 6.08719C29.7131 6.35157 28.9069 7.0247 28.8403 7.6922C28.7644 8.4497 29.8819 8.55657 30.4125 8.55657C31.2084 8.55657 32.0166 8.20032 31.7597 7.2797C31.6432 6.86279 31.4823 6.42672 31.218 6.17959C31.8205 6.59581 32.3964 7.04782 32.9426 7.53256C32.932 7.54311 32.9214 7.55383 32.9109 7.56469C32.7529 7.72936 32.5873 7.88398 32.4229 8.0375C32.0258 8.4084 31.6356 8.77285 31.3744 9.25688C31.1138 9.73781 30.8203 9.9675 30.2925 10.0922C30.23 10.1069 30.1656 10.1196 30.1005 10.1325C29.8632 10.1794 29.6176 10.2279 29.4263 10.3809C28.7475 10.9153 29.1337 12.1987 29.7769 12.585C30.5897 13.0716 31.7953 12.8428 32.4084 12.1481C32.5411 11.9976 32.6586 11.8163 32.7776 11.633C33.0882 11.154 33.4082 10.6606 34.0313 10.6613C34.4106 10.6605 34.7749 10.809 35.0456 11.0747C35.3157 11.354 35.3406 11.6204 35.37 11.9338C35.3793 12.0339 35.3891 12.1387 35.4075 12.2503C35.5422 13.0728 36.2702 12.6265 36.7095 12.2069C37.0283 12.7751 37.3172 13.3625 37.5739 13.9667C37.5384 14.0178 37.5034 14.0693 37.4686 14.1205C37.0283 14.7681 36.6193 15.3696 35.5387 14.6147C35.301 14.449 35.0945 14.2576 34.8909 14.0688L34.8909 14.0688C34.4978 13.7044 34.1152 13.3499 33.5391 13.2084C32.8787 13.0464 32.2043 13.1701 31.5462 13.2907C31.4429 13.3097 31.3399 13.3286 31.2375 13.3463C31.1153 13.3673 30.9899 13.3868 30.8628 13.4065C30.0974 13.5252 29.2698 13.6535 28.7119 14.2106C28.4103 14.5104 28.1768 14.8593 27.9417 15.2106C27.6864 15.5921 27.4291 15.9766 27.0806 16.3041C25.7859 17.5228 25.2394 18.8531 26.0775 20.5763C26.8838 22.2328 28.5703 23.1319 30.39 23.0138C30.775 22.9881 31.1633 22.9199 31.535 22.8546C32.8892 22.6167 34.0239 22.4173 33.9834 24.4556C33.9647 25.3744 34.1569 26.0119 34.4391 26.8659C34.645 27.4859 34.6778 28.0908 34.7117 28.7168C34.7208 28.8859 34.7301 29.0565 34.7428 29.2294C34.8097 30.1482 34.9384 31.1343 35.1966 32.067C31.9023 36.2867 26.7678 39 21 39C19.9795 39 18.9787 38.9151 18.0045 38.7519C18.0066 38.7017 18.0084 38.6523 18.0101 38.6039C18.0172 38.4073 18.0236 38.2283 18.0441 38.0934C18.2719 36.6028 19.0181 35.145 20.025 34.0294C20.4366 33.574 20.9112 33.1794 21.3858 32.7849L21.3858 32.7849C22.0582 32.2259 22.7304 31.6671 23.2228 30.9356C24.0413 29.7188 24.2878 28.0772 23.9485 26.6531C23.5984 25.1795 22.091 24.3931 20.6896 23.662C20.0904 23.3495 19.5107 23.047 19.0491 22.7053C18.8186 22.5346 18.5948 22.3398 18.3692 22.1434L18.3692 22.1434C17.7276 21.5848 17.0721 21.0142 16.2113 20.9531C16.0071 20.9385 15.8156 20.9463 15.6274 20.9539C15.3211 20.9664 15.0236 20.9785 14.6944 20.8931C14.5406 20.8535 14.3973 20.8003 14.2569 20.7481C13.952 20.6348 13.6606 20.5266 13.305 20.5734C12.8787 20.6295 12.5215 20.8611 12.1665 21.0912C11.7136 21.3848 11.2644 21.676 10.68 21.5972C9.69094 21.4641 8.67188 20.3072 8.44688 19.365C8.15813 18.1538 9.11625 17.7609 10.1428 17.6531C10.5713 17.6081 11.0522 17.5594 11.4638 17.7159C11.7645 17.8278 11.9772 18.041 12.19 18.2545C12.3608 18.4256 12.5316 18.5969 12.7481 18.7163C13.6603 19.2159 13.845 18.4172 13.7053 17.6072C13.6826 17.4755 13.6595 17.3522 13.6377 17.2361L13.6377 17.2359L13.6377 17.2359C13.4589 16.2825 13.37 15.8084 14.3344 15.0647C14.379 15.0305 14.4232 14.9968 14.4668 14.9636L14.4678 14.9628L14.4683 14.9624C15.1587 14.4368 15.7184 14.0107 15.6056 13.0388C15.5822 12.8388 15.5304 12.6749 15.4825 12.5234C15.385 12.2147 15.3037 11.9575 15.5119 11.5519C15.7427 11.1004 16.3684 10.6923 16.7895 10.4176L16.8141 10.4016C17.1361 10.1915 17.6762 10.0483 18.2388 9.89912C19.5743 9.54504 21.0367 9.15732 20.0109 7.76157C19.5825 7.17938 18.7922 6.13875 18.0422 5.99625C17.4047 5.87577 17.0083 6.32094 16.6144 6.76323C16.429 6.97141 16.2441 7.17895 16.035 7.32657C15.36 7.80375 14.0456 8.34563 13.3697 7.60782C12.7646 6.94719 13.2317 6.58169 13.7106 6.20695C13.9514 6.01852 14.1952 5.82775 14.3072 5.59594ZM37.6833 27.7702C38.5323 25.6802 39 23.3947 39 21C39 19.762 38.875 18.5532 38.6369 17.3854C37.7592 17.8719 36.5844 18.065 35.8584 17.9588C35.1162 17.835 34.4148 17.534 33.8138 17.0813C33.6951 16.9937 33.5677 16.8661 33.4355 16.7338C33.2054 16.5033 32.9607 16.2583 32.7225 16.185C32.3475 16.0697 31.0388 16.3294 30.7538 16.5553C30.5848 16.6892 30.4419 16.9308 30.303 17.1658C30.2075 17.3272 30.1139 17.4855 30.015 17.6034C29.8904 17.7519 29.735 17.8912 29.579 18.0311C29.3853 18.2047 29.1907 18.3791 29.0531 18.5728C27.8037 20.3403 30.8897 19.8567 31.6916 19.731L31.7063 19.7288C33.2503 19.4859 34.8666 19.7728 35.9691 20.9681C36.8667 21.9424 36.8913 22.8819 36.9195 23.9592C36.9271 24.2524 36.9351 24.5558 36.9609 24.8728C36.996 25.2981 37.1483 25.7116 37.3014 26.1273C37.4349 26.4897 37.5689 26.8537 37.6266 27.2288C37.6541 27.4086 37.6714 27.5893 37.6833 27.7702ZM20.8181 29.1206C20.4542 29.7703 19.8013 30.281 19.1676 30.7768C18.822 31.0472 18.4821 31.3131 18.1978 31.5947C18.1431 31.649 18.0728 31.7368 17.9939 31.8354C17.7582 32.13 17.4457 32.5206 17.2406 32.3991C17.1066 32.3196 17.0331 31.8392 16.977 31.4722C16.951 31.3025 16.9288 31.1571 16.9059 31.0866C16.5335 29.963 15.8226 28.9822 14.8706 28.2788C14.7686 28.2015 14.6142 28.1163 14.4491 28.0251C14.1391 27.8539 13.7914 27.6619 13.6819 27.4631C13.546 27.2233 13.5972 26.747 13.6382 26.366C13.6538 26.2213 13.6679 26.0903 13.6697 25.9913C13.6737 25.7857 13.6395 25.5269 13.6042 25.2593C13.5493 24.8435 13.4916 24.4066 13.5703 24.1163C13.629 23.9009 13.6205 23.8206 13.6179 23.7962C13.6173 23.7905 13.6171 23.7878 13.618 23.7872C13.6189 23.7867 13.6207 23.7877 13.6241 23.7896C13.6426 23.7999 13.7085 23.8366 13.9238 23.7891C14.1834 23.7309 15.2559 23.9194 15.5794 23.9869C15.9925 24.0728 16.2565 24.2963 16.5546 24.5488C16.6272 24.6103 16.7019 24.6735 16.7813 24.7369C17.8463 25.5909 19.0191 26.2519 20.2125 26.9063C21.1369 27.4181 21.4088 28.0659 20.8181 29.1206Z" fill="#888888"/>
</svg>
