<svg width="45" height="192" viewBox="0 0 45 192" fill="none" xmlns="http://www.w3.org/2000/svg">
<path d="M22.0697 191.179C26.7633 191.179 30.5683 187.374 30.5683 182.68C30.5683 177.986 26.7633 174.181 22.0697 174.181C17.376 174.181 13.571 177.986 13.571 182.68C13.571 187.374 17.376 191.179 22.0697 191.179Z" fill="#555555"/>
<path d="M22.0696 124.028H22.0697C27.9229 124.028 33.5364 126.354 37.6753 130.493C41.8141 134.631 44.1393 140.245 44.1393 146.098V180.513H0V146.098C-4.38444e-06 140.245 2.32518 134.631 6.46404 130.493C10.6029 126.354 16.2164 124.028 22.0696 124.028V124.028Z" fill="#F8C244"/>
<path d="M22 1V158" stroke="#555555" stroke-width="1.5" stroke-linecap="round" stroke-linejoin="round"/>
<path d="M22.0697 124.028C27.9229 124.028 33.5364 126.354 37.6753 130.493C41.8142 134.631 44.1393 140.245 44.1393 146.098V180.513" stroke="#555555" stroke-width="1.5" stroke-linecap="round" stroke-linejoin="round"/>
</svg>
