<svg width="1280" height="5332" viewBox="0 0 1280 5332" fill="none" xmlns="http://www.w3.org/2000/svg">
<path d="M0 1L1280 1" stroke="black" stroke-width="2"/>
<path d="M201.372 1V1396" stroke="black" stroke-width="2"/>
<path d="M201.481 1395.5H623.07" stroke="black" stroke-width="2"/>
<path d="M622.222 2346H888.042V3782" stroke="black" stroke-width="2"/>
<path d="M888.042 3782H426.667V5332" stroke="black" stroke-width="2"/>
<path d="M623.915 1396V2346" stroke="black" stroke-width="2"/>
<path d="M623.069 1881H955.708" stroke="black" stroke-width="2"/>
<path d="M967.47 1881.01C967.468 1885.03 964.734 1888 961.695 1888C958.656 1888 955.923 1885.03 955.925 1881C955.926 1876.97 958.661 1874 961.699 1874C964.738 1874.01 967.471 1876.98 967.47 1881.01Z" stroke="black" stroke-width="2"/>
<path d="M623.069 1976H955.708" stroke="black" stroke-width="2"/>
<path d="M967.47 1976.01C967.468 1980.03 964.734 1983 961.695 1983C958.656 1983 955.923 1980.03 955.925 1976C955.926 1971.97 958.661 1969 961.699 1969C964.738 1969.01 967.471 1971.98 967.47 1976.01Z" stroke="black" stroke-width="2"/>
<path d="M623.069 2078H955.708" stroke="black" stroke-width="2"/>
<path d="M967.47 2078.01C967.468 2082.03 964.734 2085 961.695 2085C958.656 2085 955.923 2082.03 955.925 2078C955.926 2073.97 958.661 2071 961.699 2071C964.738 2071.01 967.471 2073.98 967.47 2078.01Z" stroke="black" stroke-width="2"/>
</svg>
