<svg width="1512" height="5332" viewBox="0 0 1512 5332" fill="none" xmlns="http://www.w3.org/2000/svg">
<path d="M0 1L1512 1" stroke="black" stroke-width="2"/>
<path d="M237.871 1V1396" stroke="black" stroke-width="2"/>
<path d="M238 1395.5H736.001" stroke="black" stroke-width="2"/>
<path d="M735 2346H1049V3782" stroke="black" stroke-width="2"/>
<path d="M1049 3782H504V5332" stroke="black" stroke-width="2"/>
<path d="M737 1396V2346" stroke="black" stroke-width="2"/>
<path d="M736 1881H1128.93" stroke="black" stroke-width="2"/>
<path d="M1143 1881.01C1143 1884.87 1139.87 1888 1136 1888C1132.14 1888 1129 1884.86 1129 1881C1129.01 1877.13 1132.14 1874 1136.01 1874C1139.87 1874.01 1143.01 1877.14 1143 1881.01Z" stroke="black" stroke-width="2"/>
<path d="M736 1976H1128.93" stroke="black" stroke-width="2"/>
<path d="M1143 1976.01C1143 1979.87 1139.87 1983 1136 1983C1132.14 1983 1129 1979.86 1129 1976C1129.01 1972.13 1132.14 1969 1136.01 1969C1139.87 1969.01 1143.01 1972.14 1143 1976.01Z" stroke="black" stroke-width="2"/>
<path d="M736 2078H1128.93" stroke="black" stroke-width="2"/>
<path d="M1143 2078.01C1143 2081.87 1139.87 2085 1136 2085C1132.14 2085 1129 2081.86 1129 2078C1129.01 2074.13 1132.14 2071 1136.01 2071C1139.87 2071.01 1143.01 2074.14 1143 2078.01Z" stroke="black" stroke-width="2"/>
</svg>
