<svg width="42" height="46" viewBox="0 0 42 46" fill="none" xmlns="http://www.w3.org/2000/svg">
<path fill-rule="evenodd" clip-rule="evenodd" d="M10.5 14C10.5 8.20101 15.201 3.5 21 3.5C26.799 3.5 31.5 8.20101 31.5 14C31.5 15.8216 31.0362 17.5348 30.2201 19.028C30.1032 19.1656 30.0133 19.322 29.9529 19.4888C28.447 21.9399 25.9627 23.7253 23.044 24.3012C23.0135 24.3061 22.9831 24.3119 22.953 24.3187C22.3202 24.4377 21.6674 24.5 21 24.5C15.201 24.5 10.5 19.799 10.5 14ZM34.5 14C34.5 16.1624 33.9916 18.2061 33.0877 20.018L41.8122 35.7733C42.0702 36.2391 42.0619 36.8067 41.7904 37.2647C41.519 37.7227 41.0251 38.0026 40.4927 38L32.3493 37.9606L28.2882 44.7685C28.0023 45.2478 27.4739 45.5287 26.9166 45.4977C26.3594 45.4667 25.8654 45.1288 25.6344 44.6207L21.0001 34.4251L16.3655 44.6207C16.1346 45.1288 15.6406 45.4667 15.0834 45.4977C14.5261 45.5287 13.9977 45.2478 13.7118 44.7685L9.65071 37.9606L1.50725 38C0.974492 38.0026 0.480342 37.7224 0.209046 37.2638C-0.06225 36.8053 -0.0699769 36.2373 0.188746 35.7716L8.9255 20.0445C8.01339 18.226 7.5 16.173 7.5 14C7.5 6.54416 13.5442 0.5 21 0.5C28.4558 0.5 34.5 6.54416 34.5 14ZM24.3368 27.0845C27.0513 26.3943 29.4374 24.8817 31.2142 22.8275L37.9479 34.9876L32.3645 34.9606L32.3641 34.9606C31.8424 34.9581 31.3291 35.0916 30.8747 35.348C30.4203 35.6045 30.0406 35.9751 29.7732 36.4231L29.773 36.4234L27.1798 40.7706L22.6478 30.8002L24.3368 27.0845ZM20.8529 27.4992L19.6448 30.1569C19.6379 30.1714 19.6313 30.186 19.6249 30.2006L14.8202 40.7707L12.2268 36.4231C11.9594 35.9751 11.5797 35.6045 11.1253 35.348C10.6709 35.0916 10.1576 34.9581 9.63587 34.9606L9.63554 34.9606L4.05608 34.9876L10.8013 22.8455C13.2467 25.6625 16.8398 27.4564 20.8529 27.4992ZM16.5 14C16.5 11.5147 18.5147 9.5 21 9.5C23.4853 9.5 25.5 11.5147 25.5 14C25.5 16.4853 23.4853 18.5 21 18.5C18.5147 18.5 16.5 16.4853 16.5 14ZM21 6.5C16.8579 6.5 13.5 9.85786 13.5 14C13.5 18.1421 16.8579 21.5 21 21.5C25.1421 21.5 28.5 18.1421 28.5 14C28.5 9.85786 25.1421 6.5 21 6.5Z" fill="#888888"/>
</svg>
