<svg width="30" height="42" viewBox="0 0 30 42" fill="none" xmlns="http://www.w3.org/2000/svg">
<path fill-rule="evenodd" clip-rule="evenodd" d="M10.5 0C10.0352 0 9.59667 0.215464 9.31265 0.583377C9.02862 0.951291 8.9312 1.43009 9.04886 1.87974C10.1826 6.21208 8.29959 9.90158 5.7207 13.934C5.43174 14.3859 5.13228 14.8448 4.82913 15.3094C3.82567 16.8472 2.78185 18.4469 1.94476 20.0557C0.839994 22.1788 0 24.4827 0 27C0 30.9782 1.58035 34.7936 4.3934 37.6066C7.20644 40.4196 11.0218 42 15 42C18.9782 42 22.7936 40.4196 25.6066 37.6066C28.4196 34.7936 30 30.9782 30 27C30 18.3744 26.907 11.6548 22.9553 7.08175C19.0673 2.58249 14.1884 0 10.5 0ZM8.24805 15.5504C10.4935 12.0394 12.769 8.01901 12.3318 3.2733C14.7597 3.93514 17.893 5.8119 20.6854 9.04325C24.1868 13.0952 27 19.1256 27 27C27 30.1826 25.7357 33.2348 23.4853 35.4853C22.7126 36.258 21.8454 36.9144 20.9109 37.4433C21.9303 35.9555 22.5 33.9682 22.5 31.5C22.5 28.3758 21.0636 25.0657 19.1728 22.5662C18.2169 21.3025 17.1017 20.1871 15.9134 19.3755C14.7392 18.5736 13.391 18 12 18C11.553 18 11.1293 18.1993 10.8444 18.5437C10.5594 18.8881 10.4429 19.3416 10.5265 19.7807C10.7983 21.2077 10.2926 22.4234 9.41887 24.3201L9.37518 24.4149C8.54206 26.2224 7.5 28.4832 7.5 31.5C7.5 33.9682 8.06975 35.9555 9.08913 37.4433C8.15459 36.9144 7.28739 36.258 6.51472 35.4853C4.26428 33.2348 3 30.1826 3 27C3 25.158 3.61313 23.3486 4.60603 21.4404C5.36838 19.9754 6.29901 18.5485 7.28402 17.0383L7.28417 17.038C7.6011 16.5521 7.92366 16.0576 8.24805 15.5504ZM12.1959 25.462C12.7434 24.2746 13.3557 22.9469 13.5417 21.4435C13.7588 21.5561 13.9858 21.6919 14.2214 21.8528C15.0898 22.4459 15.9784 23.316 16.7803 24.3761C18.4051 26.524 19.5 29.2138 19.5 31.5C19.5 33.9295 18.8309 35.4003 18.0312 36.2524C17.2316 37.1044 16.1511 37.5 15 37.5C13.8489 37.5 12.7684 37.1044 11.9688 36.2524C11.1691 35.4003 10.5 33.9295 10.5 31.5C10.5 29.1595 11.296 27.4152 12.1436 25.5753L12.1959 25.462Z" fill="#888888"/>
</svg>
