<svg width="42" height="42" viewBox="0 0 42 42" fill="none" xmlns="http://www.w3.org/2000/svg">
<path fill-rule="evenodd" clip-rule="evenodd" d="M3 21C3 11.0589 11.0589 3 21 3C30.9411 3 39 11.0589 39 21C39 30.9411 30.9411 39 21 39C11.0589 39 3 30.9411 3 21ZM21 0C9.40202 0 0 9.40202 0 21C0 32.598 9.40202 42 21 42C32.598 42 42 32.598 42 21C42 9.40202 32.598 0 21 0ZM16.5 18.75C16.5 19.9926 15.4926 21 14.25 21C13.0074 21 12 19.9926 12 18.75C12 17.5074 13.0074 16.5 14.25 16.5C15.4926 16.5 16.5 17.5074 16.5 18.75ZM12.0319 26.4534C13.1653 30.2315 16.7466 33 21.0047 33C25.2628 33 28.845 30.2315 29.9691 26.4534C30.0008 26.341 30.0058 26.2227 29.9837 26.108C29.9616 25.9933 29.913 25.8853 29.8418 25.7927C29.7706 25.7001 29.6787 25.6254 29.5735 25.5746C29.4683 25.5238 29.3528 25.4982 29.2359 25.5H12.765C12.6482 25.4982 12.5326 25.5238 12.4274 25.5746C12.3222 25.6254 12.2304 25.7001 12.1592 25.7927C12.088 25.8853 12.0394 25.9933 12.0173 26.108C11.9952 26.2227 12.0002 26.341 12.0319 26.4534ZM27.75 21C28.9926 21 30 19.9926 30 18.75C30 17.5074 28.9926 16.5 27.75 16.5C26.5074 16.5 25.5 17.5074 25.5 18.75C25.5 19.9926 26.5074 21 27.75 21Z" fill="#888888"/>
</svg>
