<svg width="42" height="36" viewBox="0 0 42 36" fill="none" xmlns="http://www.w3.org/2000/svg">
<path fill-rule="evenodd" clip-rule="evenodd" d="M9 0C7.50814 0 6.13805 0.405886 5.05319 1.30715C3.97252 2.20494 3.31598 3.47703 3.0296 4.9532L0.0386954 19.16C0.013381 19.2693 0 19.3831 0 19.5V30L6.34789e-06 30.0044C0.00461993 31.5931 0.637783 33.1154 1.76118 34.2388C2.88459 35.3622 4.40692 35.9954 5.99564 36L6 36H36L36.0044 36C37.5931 35.9954 39.1154 35.3622 40.2388 34.2388C41.3622 33.1154 41.9954 31.5931 42 30.0044L42 30V19.5C42 19.3831 41.9866 19.2693 41.9613 19.1601L38.9714 4.95799C38.6826 3.41828 37.9929 2.14002 36.8923 1.25621C35.7945 0.374619 34.4307 0 33 0H9ZM27 18H38.6513L36.0322 5.55902C36.0297 5.54708 36.0273 5.53512 36.0251 5.52313C35.843 4.54002 35.4557 3.95012 35.0139 3.59535C34.5649 3.23476 33.9131 3 33 3H9C8.05436 3 7.40883 3.25036 6.97025 3.61472C6.53078 3.97982 6.15677 4.5777 5.97301 5.53327L5.96782 5.55902L3.34867 18H15C15.8284 18 16.5 18.6716 16.5 19.5C16.5 20.6935 16.9741 21.8381 17.818 22.682C18.6619 23.5259 19.8065 24 21 24C22.1935 24 23.3381 23.5259 24.182 22.682C25.0259 21.8381 25.5 20.6935 25.5 19.5C25.5 18.6716 26.1716 18 27 18ZM28.3485 21C28.0565 22.4302 27.3509 23.7557 26.3033 24.8033C24.8968 26.2098 22.9891 27 21 27C19.0109 27 17.1032 26.2098 15.6967 24.8033C14.6491 23.7557 13.9435 22.4302 13.6515 21H3V29.9976C3.00283 30.793 3.32004 31.555 3.8825 32.1175C4.44501 32.68 5.20712 32.9972 6.00257 33H35.9974C36.7929 32.9972 37.555 32.68 38.1175 32.1175C38.68 31.555 38.9972 30.7929 39 29.9974V21H28.3485ZM9 7.5C9 6.67157 9.67157 6 10.5 6H31.5C32.3284 6 33 6.67157 33 7.5C33 8.32843 32.3284 9 31.5 9H10.5C9.67157 9 9 8.32843 9 7.5ZM9 12C8.17157 12 7.5 12.6716 7.5 13.5C7.5 14.3284 8.17157 15 9 15H33C33.8284 15 34.5 14.3284 34.5 13.5C34.5 12.6716 33.8284 12 33 12H9Z" fill="#888888"/>
</svg>
